<svg width="165" height="134" viewBox="0 0 165 134" fill="none" xmlns="http://www.w3.org/2000/svg"><mask id="a" style="mask-type:alpha" maskUnits="userSpaceOnUse" x="0" y="0" width="165" height="134"><path fill="#fff" d="M0 0h165v134H0z"/></mask><g mask="url(#a)"><circle opacity=".2" cx="142.5" cy="146.83" r="141.5" fill="#FBD9CA"/><g opacity=".12"><path d="M155.543 64.446h-8.317V80.41h8.317V64.446z" fill="#EE7B45" stroke="#EE7B45" stroke-width="3" stroke-miterlimit="10"/><path d="M80.623 160.626V91.679l43.011-27.028 43.011 27.028v68.947H80.623z" fill="#EE7B45" stroke="#EE7B45" stroke-width="3"/><path d="m176.059 101.725-52.424-34.266-52.424 34.266v-9.128l52.424-34.267 52.424 34.267v9.128z" fill="#EE7B45" stroke="#EE7B45" stroke-width="3" stroke-miterlimit="10"/><path d="M56.499 118.602h-2.184v24.48h2.184v-24.48z" fill="#EE7B45"/><path fill-rule="evenodd" clip-rule="evenodd" d="M62.62 105.926a8.062 8.062 0 0 0 .881-3.677 8.095 8.095 0 1 0-15.307 3.677A10.381 10.381 0 0 0 45 113.429c0 5.749 4.66 10.409 10.407 10.409 5.748 0 10.407-4.66 10.407-10.409a10.38 10.38 0 0 0-3.194-7.503z" fill="#EE7B45"/><path fill="#fff" d="M103.873 89.359h18.781v20.414h-18.781zm20.413 0h18.781v20.414h-18.781zm-20.413 22.047h18.781v20.414h-18.781zm20.413 0h18.781v20.414h-18.781z"/></g></g></svg>